<svg width="17" height="16" viewBox="0 0 17 16" fill="none" xmlns="http://www.w3.org/2000/svg">
<path d="M13.1667 2H3.83333C3.09695 2 2.5 2.59695 2.5 3.33333V12.6667C2.5 13.403 3.09695 14 3.83333 14H13.1667C13.903 14 14.5 13.403 14.5 12.6667V3.33333C14.5 2.59695 13.903 2 13.1667 2Z" stroke="#222222" stroke-width="1.5" stroke-linecap="round" stroke-linejoin="round"/>
<path d="M6.16602 6.66699C6.7183 6.66699 7.16602 6.21928 7.16602 5.66699C7.16602 5.11471 6.7183 4.66699 6.16602 4.66699C5.61373 4.66699 5.16602 5.11471 5.16602 5.66699C5.16602 6.21928 5.61373 6.66699 6.16602 6.66699Z" fill="#222222" stroke="#222222" stroke-width="1.5" stroke-linecap="round" stroke-linejoin="round"/>
<path d="M14.5007 10.0003L11.1673 6.66699L3.83398 14.0003" stroke="#222222" stroke-width="1.5" stroke-linecap="round" stroke-linejoin="round"/>
</svg>
